<svg width="63" height="59" viewBox="0 0 63 59" fill="none" xmlns="http://www.w3.org/2000/svg">
<g id="material-symbols:pets">
<path id="Vector" d="M11.8125 29.8073C9.975 29.8073 8.42187 29.2132 7.15312 28.025C5.88437 26.8368 5.25 25.3823 5.25 23.6615C5.25 21.9406 5.88437 20.4861 7.15312 19.2979C8.42187 18.1097 9.975 17.5156 11.8125 17.5156C13.65 17.5156 15.2031 18.1097 16.4719 19.2979C17.7406 20.4861 18.375 21.9406 18.375 23.6615C18.375 25.3823 17.7406 26.8368 16.4719 28.025C15.2031 29.2132 13.65 29.8073 11.8125 29.8073ZM23.625 19.974C21.7875 19.974 20.2344 19.3799 18.9656 18.1917C17.6969 17.0035 17.0625 15.549 17.0625 13.8281C17.0625 12.1073 17.6969 10.6528 18.9656 9.46458C20.2344 8.27639 21.7875 7.68229 23.625 7.68229C25.4625 7.68229 27.0156 8.27639 28.2844 9.46458C29.5531 10.6528 30.1875 12.1073 30.1875 13.8281C30.1875 15.549 29.5531 17.0035 28.2844 18.1917C27.0156 19.3799 25.4625 19.974 23.625 19.974ZM39.375 19.974C37.5375 19.974 35.9844 19.3799 34.7156 18.1917C33.4469 17.0035 32.8125 15.549 32.8125 13.8281C32.8125 12.1073 33.4469 10.6528 34.7156 9.46458C35.9844 8.27639 37.5375 7.68229 39.375 7.68229C41.2125 7.68229 42.7656 8.27639 44.0344 9.46458C45.3031 10.6528 45.9375 12.1073 45.9375 13.8281C45.9375 15.549 45.3031 17.0035 44.0344 18.1917C42.7656 19.3799 41.2125 19.974 39.375 19.974ZM51.1875 29.8073C49.35 29.8073 47.7969 29.2132 46.5281 28.025C45.2594 26.8368 44.625 25.3823 44.625 23.6615C44.625 21.9406 45.2594 20.4861 46.5281 19.2979C47.7969 18.1097 49.35 17.5156 51.1875 17.5156C53.025 17.5156 54.5781 18.1097 55.8469 19.2979C57.1156 20.4861 57.75 21.9406 57.75 23.6615C57.75 25.3823 57.1156 26.8368 55.8469 28.025C54.5781 29.2132 53.025 29.8073 51.1875 29.8073ZM17.4563 54.3906C15.4875 54.3906 13.8355 53.6834 12.5003 52.2691C11.165 50.8547 10.4983 49.1863 10.5 47.2639C10.5 45.1334 11.277 43.2691 12.831 41.6712C14.385 40.0733 15.9268 38.4959 17.4563 36.9389C18.725 35.6688 19.8188 34.2864 20.7375 32.7917C21.6562 31.297 22.75 29.8933 24.0187 28.5806C24.9812 27.5153 26.0969 26.6344 27.3656 25.9379C28.6344 25.2413 30.0125 24.8923 31.5 24.8906C32.9875 24.8906 34.3656 25.2184 35.6344 25.874C36.9031 26.5295 38.0187 27.3899 38.9813 28.4552C40.2062 29.7663 41.2895 31.1799 42.231 32.6958C43.1725 34.2118 44.2768 35.6253 45.5438 36.9365C47.075 38.4934 48.6167 40.0708 50.169 41.6688C51.7212 43.2667 52.4982 45.1309 52.5 47.2615C52.5 49.1872 51.8324 50.8572 50.4971 52.2715C49.1619 53.6859 47.5107 54.3923 45.5438 54.3906C43.1813 54.3906 40.8406 54.2062 38.5219 53.8375C36.2031 53.4688 33.8625 53.2844 31.5 53.2844C29.1375 53.2844 26.7969 53.4688 24.4781 53.8375C22.1594 54.2062 19.8188 54.3906 17.4563 54.3906Z" fill="black"/>
</g>
</svg>
